# xmcd
#
# Track frame offsets: 
#        150
#        19898
#        39290
#        58544
#        79116
#        101676
#        121111
#        143235
#        164577
#        186917
#        204800
#        227253
#        246728
#        268145
#        286752
#        302905
#        323150
#
# Disc length: 4479 seconds
#
# Revision: 0
# Processed by: cddbd v1.5.2PL0 Copyright (c) Steve Scherf et al.
# Submitted via: ExactAudioCopy v0.95a5
#
DISCID=ea117d11
DTITLE=群星 - 一人一首（女人篇1）
DYEAR=2007
DGENRE=Pop
TTITLE0=最浪漫的事
TTITLE1=容易受伤的女人
TTITLE2=爱你十分泪七分
TTITLE3=独角戏
TTITLE4=阳光总在风雨后
TTITLE5=风中有朵雨做的云
TTITLE6=爱上一个不回家的人
TTITLE7=女人花
TTITLE8=别问我是谁
TTITLE9=梦醒时分
TTITLE10=风中的承诺
TTITLE11=最熟悉的陌生人
TTITLE12=太委屈
TTITLE13=盛夏的果实
TTITLE14=星语心愿
TTITLE15=美丽心情
TTITLE16=走过咖啡屋
EXTD=
EXTT0=
EXTT1=
EXTT2=
EXTT3=
EXTT4=
EXTT5=
EXTT6=
EXTT7=
EXTT8=
EXTT9=
EXTT10=
EXTT11=
EXTT12=
EXTT13=
EXTT14=
EXTT15=
EXTT16=
PLAYORDER=
